<svg xmlns="http://www.w3.org/2000/svg" xmlns:xlink="http://www.w3.org/1999/xlink" version="1.1" x="0px" y="0px" viewBox="0 0 100 125" enable-background="new 0 0 100 100" xml:space="preserve"><path fill="#000000" d="M2.75,40.834c0,0.014,0.013,0.022,0.015,0.036c0.005,0.033,0.018,0.056,0.035,0.085  c0.018,0.029,0.032,0.051,0.059,0.071c0.011,0.008,0.013,0.023,0.025,0.03l81.615,43.05c0.037,0.02,0.078,0.028,0.117,0.028  c0.049,0,0.094-0.017,0.135-0.043c0.003-0.002,0.007-0.001,0.01-0.003l11.726-8.312c0.007-0.005,0.006-0.014,0.012-0.019  c0.025-0.021,0.034-0.05,0.05-0.079s0.033-0.053,0.035-0.086c0.001-0.008,0.009-0.013,0.009-0.021V59.603  c0-0.015-0.013-0.022-0.015-0.036c-0.004-0.026-0.011-0.047-0.023-0.07c-0.006-0.012,0-0.027-0.008-0.039  c-0.005-0.006-0.014-0.006-0.019-0.011c-0.014-0.017-0.028-0.023-0.046-0.036c-0.01-0.008-0.012-0.023-0.024-0.029l-9.011-4.68l0,0  l-13.607-7.198l-13.584-7.175l-13.606-7.175l-13.606-7.175l-13.604-7.175l0,0l-4.594-2.472c-0.014-0.007-0.028,0-0.042-0.004  c-0.031-0.01-0.058-0.011-0.09-0.009c-0.034,0.002-0.06,0.006-0.09,0.021c-0.013,0.006-0.028,0-0.04,0.009L2.855,24.661  c-0.007,0.005-0.006,0.014-0.012,0.019c-0.016,0.013-0.023,0.028-0.035,0.044c-0.008,0.011-0.023,0.012-0.03,0.024  c-0.007,0.013,0,0.027-0.004,0.041c-0.007,0.02-0.015,0.035-0.017,0.056c0,0.008-0.008,0.013-0.008,0.021V40.834z M14.743,16.847  l2.208,1.188l-0.207-0.042c-0.008-0.001-0.014,0.005-0.022,0.004c-0.007-0.001-0.012-0.009-0.02-0.009l-1.443-0.044  c-0.009,0-0.013,0.007-0.021,0.008c-0.007,0-0.013-0.006-0.021-0.005l-1.443,0.197c-0.008,0.001-0.012,0.009-0.019,0.011  c-0.008,0.001-0.015-0.004-0.022-0.002l-1.312,0.415c-0.009,0.003-0.011,0.013-0.019,0.016c-0.008,0.003-0.017-0.001-0.024,0.002  l-0.362,0.196L14.743,16.847z M12.591,19.037l1.271-0.402l1.4-0.191l1.403,0.043l1.355,0.275l1.178,0.484l0.936,0.645l0.602,0.722  l0.256,0.804l-0.059,0.774l-0.414,0.77l-0.756,0.694l-1.045,0.585l-1.247,0.38l-1.401,0.191l-1.427-0.043l-1.329-0.274l-1.181-0.485  l-0.936-0.645l-0.604-0.725l-0.274-0.802l0.077-0.77l0.417-0.774l0.735-0.694L12.591,19.037z M10.44,19.959  c-0.011,0.01-0.008,0.026-0.017,0.037s-0.024,0.013-0.032,0.026l-0.459,0.853c-0.009,0.016,0,0.034-0.005,0.051  c-0.005,0.016-0.021,0.025-0.023,0.043l-0.088,0.875c0,0.004,0.004,0.008,0.003,0.012c0,0.005-0.005,0.008-0.005,0.013v2.669  c0,0.016,0.014,0.025,0.017,0.04c0.002,0.015-0.008,0.028-0.002,0.042l0.307,0.875c0.006,0.018,0.022,0.027,0.032,0.042  c0.006,0.01,0.002,0.023,0.01,0.033l0.656,0.81c0.008,0.01,0.021,0.006,0.03,0.015c0.011,0.01,0.01,0.026,0.022,0.034l0.984,0.678  c0.01,0.007,0.023,0.005,0.034,0.011c0.007,0.003,0.009,0.013,0.017,0.016l1.225,0.482c0.011,0.004,0.022,0.003,0.033,0.006  c0.003,0,0.005,0.005,0.008,0.005l1.378,0.284c0.013,0.003,0.027,0.004,0.041,0.004c0.001,0,0.001,0.001,0.002,0.001l1.466,0.044  c0.002,0,0.005,0,0.007,0l0,0c0.01,0,0.021,0,0.03-0.002l1.444-0.175c0.003,0,0.004-0.003,0.007-0.004  c0.014-0.002,0.026-0.002,0.04-0.006l1.29-0.416c0.005-0.001,0.006-0.008,0.012-0.01c0.01-0.003,0.021-0.002,0.03-0.007l1.094-0.59  c0.01-0.005,0.011-0.018,0.02-0.024c0.009-0.007,0.021-0.004,0.03-0.012l0.81-0.744c0.007-0.006,0.005-0.017,0.011-0.024  c0.013-0.015,0.031-0.023,0.04-0.042l0.459-0.854c0.008-0.016,0-0.033,0.005-0.049c0.006-0.018,0.023-0.03,0.024-0.05l0.066-0.896  c0-0.004-0.003-0.006-0.003-0.01c0-0.003,0.004-0.005,0.004-0.009v-2.646c0-0.014-0.013-0.023-0.015-0.036  c-0.002-0.014,0.008-0.026,0.003-0.04l-0.285-0.897c-0.005-0.017-0.023-0.023-0.032-0.038c-0.008-0.015-0.003-0.033-0.014-0.046  l-0.084-0.101l9.405,4.959l-0.095-0.021c-0.009-0.002-0.017,0.006-0.026,0.005c-0.009-0.001-0.015-0.011-0.024-0.011l-1.488-0.021  c-0.006,0-0.01,0.006-0.017,0.007c-0.006,0-0.011-0.006-0.017-0.005l-1.422,0.175c-0.009,0.001-0.013,0.01-0.021,0.012  c-0.009,0.002-0.017-0.004-0.025-0.002l-1.29,0.416c-0.008,0.002-0.01,0.011-0.017,0.015c-0.008,0.003-0.016-0.002-0.023,0.002  l-1.116,0.59c-0.011,0.005-0.012,0.019-0.021,0.026c-0.009,0.006-0.022,0.003-0.031,0.011l-0.809,0.744  c-0.012,0.011-0.009,0.028-0.019,0.041c-0.01,0.012-0.027,0.014-0.034,0.029l-0.438,0.854c-0.008,0.016,0,0.033-0.004,0.049  c-0.005,0.015-0.021,0.024-0.022,0.04l-0.088,0.875c0,0.004,0.004,0.008,0.003,0.012c0,0.005-0.005,0.008-0.005,0.013v2.668  c0,0.014,0.013,0.023,0.015,0.037c0.002,0.014-0.008,0.025-0.003,0.039l0.284,0.897c0.006,0.021,0.024,0.031,0.035,0.048  c0.007,0.012,0.002,0.026,0.011,0.036l0.656,0.787c0.007,0.009,0.021,0.006,0.029,0.014c0.01,0.009,0.01,0.024,0.021,0.032  l0.984,0.679c0.01,0.007,0.021,0.005,0.032,0.01c0.007,0.004,0.008,0.013,0.016,0.016l1.226,0.503  c0.013,0.005,0.026,0.004,0.039,0.008c0.004,0.001,0.005,0.005,0.01,0.006l1.399,0.263c0.011,0.002,0.022,0.002,0.033,0.003  c0,0,0.001,0.001,0.001,0.001l1.466,0.065c0.003,0,0.007,0,0.011,0l0,0c0,0,0,0,0,0l0,0l0,0c0.012,0,0.023-0.001,0.034-0.002  l1.422-0.197c0.003,0,0.004-0.003,0.007-0.004c0.011-0.002,0.023-0.002,0.034-0.005l1.312-0.415  c0.006-0.002,0.007-0.009,0.013-0.011c0.01-0.004,0.021-0.002,0.031-0.008l1.094-0.591c0.01-0.005,0.01-0.017,0.019-0.023  c0.01-0.007,0.022-0.004,0.031-0.012l0.81-0.744c0.007-0.007,0.005-0.018,0.012-0.025c0.014-0.016,0.032-0.025,0.042-0.045  l0.438-0.853c0.007-0.014-0.001-0.028,0.003-0.042c0.005-0.016,0.02-0.025,0.022-0.042l0.109-0.897  c0.001-0.006-0.005-0.01-0.004-0.015c0-0.006,0.006-0.009,0.006-0.015v-2.646c0-0.016-0.014-0.025-0.017-0.04  c-0.002-0.015,0.008-0.028,0.002-0.042l-0.307-0.875c-0.005-0.015-0.021-0.02-0.029-0.033c-0.008-0.013-0.003-0.03-0.013-0.042  l-0.113-0.139l9.508,5.014l-0.199-0.041c-0.008-0.001-0.014,0.005-0.022,0.004c-0.007-0.001-0.012-0.009-0.02-0.009l-1.443-0.044  c-0.008,0-0.011,0.006-0.019,0.007c-0.007,0-0.013-0.006-0.02-0.005l-1.444,0.175c-0.008,0.001-0.012,0.009-0.02,0.011  c-0.008,0.002-0.014-0.004-0.022-0.002l-1.312,0.394c-0.01,0.003-0.013,0.014-0.021,0.018c-0.009,0.004-0.02-0.001-0.029,0.003  l-1.094,0.613c-0.01,0.005-0.01,0.018-0.019,0.024c-0.008,0.006-0.02,0.003-0.028,0.01l-0.81,0.743  c-0.012,0.01-0.009,0.027-0.018,0.039s-0.026,0.014-0.033,0.027l-0.459,0.854c-0.009,0.017,0,0.036-0.005,0.054  c-0.005,0.017-0.022,0.028-0.024,0.046l-0.065,0.896c0,0.003,0.003,0.006,0.003,0.009c0,0.003-0.004,0.005-0.004,0.009v2.647  c0,0.015,0.014,0.024,0.016,0.039c0.002,0.014-0.007,0.028-0.002,0.042l0.306,0.896c0.006,0.019,0.024,0.029,0.035,0.046  c0.006,0.01,0.002,0.024,0.01,0.034l0.656,0.787c0.007,0.009,0.02,0.006,0.029,0.013c0.009,0.009,0.008,0.023,0.019,0.031  l0.963,0.679c0.009,0.007,0.021,0.005,0.032,0.01c0.007,0.004,0.009,0.014,0.017,0.018l1.225,0.503  c0.013,0.005,0.026,0.005,0.04,0.008c0.004,0.001,0.006,0.005,0.01,0.006l1.4,0.263c0.011,0.002,0.022,0.002,0.033,0.003  c0,0,0.001,0.001,0.001,0.001l1.443,0.065c0.003,0,0.007,0,0.011,0l0,0c0,0,0,0,0,0l0,0l0,0c0.011,0,0.022-0.001,0.034-0.002  l1.444-0.197c0.002,0,0.003-0.003,0.006-0.003c0.011-0.002,0.021-0.001,0.032-0.005l1.312-0.394  c0.006-0.002,0.008-0.009,0.014-0.012c0.012-0.004,0.025-0.003,0.036-0.009l1.094-0.612c0.009-0.005,0.01-0.017,0.018-0.023  c0.009-0.006,0.021-0.004,0.029-0.011l0.787-0.722c0.007-0.006,0.005-0.017,0.011-0.023c0.013-0.014,0.03-0.023,0.04-0.04  l0.481-0.875c0.009-0.016,0-0.034,0.005-0.051c0.006-0.019,0.023-0.031,0.025-0.051l0.065-0.897c0-0.003-0.003-0.006-0.003-0.009  c0-0.003,0.004-0.005,0.004-0.009v-2.646c0-0.016-0.014-0.025-0.017-0.04c-0.002-0.015,0.008-0.028,0.002-0.042l-0.306-0.875  c-0.005-0.015-0.021-0.02-0.029-0.033c-0.008-0.014-0.003-0.03-0.013-0.042l-0.129-0.159l9.546,5.034l-0.199-0.041  c-0.008-0.001-0.014,0.005-0.021,0.004c-0.009-0.001-0.013-0.009-0.021-0.009l-1.465-0.044c-0.008,0-0.012,0.007-0.02,0.007  c-0.006,0-0.012-0.006-0.019-0.005l-1.422,0.175c-0.008,0.001-0.012,0.009-0.02,0.011c-0.008,0.002-0.015-0.004-0.022-0.002  L53.24,40.07c-0.01,0.003-0.012,0.014-0.021,0.018c-0.009,0.004-0.02-0.001-0.028,0.003l-1.094,0.612  c-0.01,0.005-0.011,0.018-0.019,0.024c-0.009,0.006-0.021,0.003-0.028,0.01l-0.81,0.743c-0.012,0.01-0.01,0.027-0.018,0.039  c-0.01,0.012-0.026,0.013-0.033,0.027L50.73,42.4c-0.009,0.016,0,0.034-0.005,0.051c-0.005,0.016-0.021,0.025-0.023,0.043  l-0.088,0.896c0,0.005,0.004,0.008,0.004,0.013c0,0.004-0.005,0.007-0.005,0.012v2.669c0,0.016,0.014,0.025,0.017,0.04  c0.002,0.015-0.008,0.028-0.002,0.042l0.307,0.875c0.006,0.019,0.023,0.028,0.034,0.044c0.006,0.01,0.002,0.023,0.01,0.033  l0.656,0.788c0.008,0.009,0.021,0.006,0.03,0.014c0.009,0.009,0.009,0.024,0.021,0.032l0.984,0.678  c0.01,0.006,0.021,0.004,0.03,0.009c0.007,0.003,0.008,0.012,0.015,0.015l1.203,0.503c0.014,0.005,0.026,0.005,0.04,0.008  c0.005,0.001,0.006,0.006,0.011,0.007l1.399,0.263c0.011,0.002,0.022,0.002,0.033,0.003c0.001,0,0.001,0.001,0.001,0.001  l1.467,0.065c0.003,0,0.007,0,0.01,0l0,0c0,0,0,0,0.001,0l0,0l0,0c0.012,0,0.022-0.001,0.034-0.002l1.422-0.196  c0.002,0,0.004-0.003,0.006-0.003c0.011-0.002,0.021-0.001,0.031-0.005l1.312-0.395c0.007-0.002,0.009-0.009,0.015-0.012  c0.012-0.004,0.024-0.003,0.036-0.009l1.094-0.612c0.009-0.005,0.009-0.016,0.017-0.021c0.009-0.006,0.021-0.004,0.028-0.011  l0.83-0.743c0.008-0.007,0.006-0.018,0.013-0.025c0.015-0.016,0.034-0.027,0.044-0.047l0.438-0.854  c0.008-0.015-0.001-0.03,0.004-0.045c0.005-0.017,0.021-0.027,0.022-0.045l0.088-0.896c0.001-0.005-0.004-0.008-0.004-0.013  c0-0.004,0.005-0.007,0.005-0.012v-2.669c0-0.015-0.014-0.024-0.016-0.038s0.008-0.027,0.003-0.041l-0.284-0.854  c-0.006-0.017-0.023-0.022-0.031-0.037c-0.008-0.014-0.004-0.032-0.015-0.045l-0.114-0.137l9.496,5.016l-0.205-0.042  c-0.008-0.001-0.014,0.005-0.021,0.004c-0.008-0.001-0.013-0.009-0.021-0.009l-1.443-0.044c-0.008,0-0.011,0.006-0.019,0.007  c-0.007,0-0.012-0.006-0.02-0.005l-1.444,0.176c-0.008,0.001-0.012,0.009-0.02,0.011c-0.008,0.001-0.015-0.005-0.022-0.002  l-1.312,0.394c-0.009,0.003-0.012,0.014-0.021,0.018c-0.009,0.003-0.019-0.002-0.028,0.003l-1.07,0.591  c-0.011,0.006-0.012,0.019-0.021,0.025c-0.01,0.007-0.022,0.003-0.031,0.012l-0.81,0.766c-0.011,0.01-0.008,0.026-0.017,0.037  s-0.024,0.013-0.032,0.026l-0.459,0.853c-0.009,0.017,0,0.035-0.005,0.053c-0.005,0.017-0.022,0.028-0.024,0.047l-0.066,0.897  c0,0.004,0.004,0.006,0.004,0.01c0,0.003-0.004,0.005-0.004,0.009v2.668c0,0.015,0.013,0.023,0.016,0.037  c0.002,0.015-0.008,0.026-0.004,0.04l0.285,0.875c0.007,0.021,0.025,0.031,0.035,0.049c0.007,0.01,0.003,0.023,0.012,0.034  l0.656,0.788c0.007,0.01,0.021,0.006,0.029,0.014c0.01,0.01,0.01,0.024,0.021,0.032l0.984,0.678c0.009,0.007,0.021,0.005,0.03,0.009  c0.008,0.004,0.009,0.014,0.016,0.017l1.225,0.503c0.013,0.005,0.025,0.004,0.039,0.008c0.004,0,0.006,0.006,0.01,0.006l1.378,0.264  c0.012,0.002,0.022,0.002,0.034,0.003c0,0,0.001,0.001,0.002,0.001l1.465,0.064c0.004,0.001,0.008,0.001,0.012,0.001l0,0l0,0l0,0  l0,0c0.012,0,0.022-0.001,0.033-0.003l1.443-0.195c0.003-0.001,0.004-0.004,0.006-0.004c0.012-0.002,0.022-0.002,0.033-0.005  l1.291-0.394c0.006-0.002,0.008-0.009,0.014-0.011c0.01-0.004,0.021-0.003,0.031-0.008l1.115-0.591  c0.012-0.006,0.013-0.02,0.023-0.027c0.01-0.008,0.023-0.005,0.033-0.014l0.789-0.766c0.006-0.007,0.004-0.018,0.01-0.024  c0.012-0.013,0.027-0.021,0.035-0.037l0.459-0.854c0.008-0.015,0-0.03,0.005-0.046c0.006-0.018,0.022-0.029,0.024-0.048l0.088-0.896  c0-0.005-0.004-0.008-0.004-0.013c0-0.004,0.005-0.008,0.005-0.012v-2.669c0-0.016-0.014-0.025-0.017-0.041  c-0.002-0.015,0.008-0.029,0.002-0.044l-0.307-0.854c-0.005-0.015-0.021-0.019-0.028-0.031c-0.008-0.014-0.003-0.03-0.013-0.042  l-0.108-0.133l9.433,4.989l-0.106-0.021c-0.008-0.002-0.015,0.005-0.022,0.004c-0.008,0-0.012-0.009-0.02-0.009l-1.488-0.043  c-0.006,0-0.012,0.007-0.018,0.007c-0.008,0.001-0.013-0.006-0.02-0.005l-1.4,0.175c-0.008,0.001-0.012,0.01-0.02,0.011  c-0.007,0.002-0.014-0.004-0.021-0.002l-1.312,0.394c-0.009,0.003-0.012,0.014-0.021,0.018c-0.009,0.003-0.019-0.002-0.027,0.002  l-1.116,0.613c-0.011,0.006-0.012,0.019-0.021,0.025c-0.01,0.007-0.022,0.004-0.031,0.012l-0.787,0.744  c-0.011,0.011-0.009,0.027-0.018,0.039s-0.024,0.013-0.032,0.026l-0.459,0.875c-0.009,0.016,0,0.032-0.005,0.048  c-0.005,0.017-0.021,0.025-0.022,0.043l-0.088,0.875c0,0.005,0.004,0.008,0.004,0.013s-0.005,0.008-0.005,0.013v2.669  c0,0.015,0.013,0.023,0.016,0.037c0.002,0.014-0.008,0.026-0.003,0.04l0.283,0.875c0.007,0.021,0.025,0.031,0.035,0.049  c0.008,0.011,0.003,0.024,0.012,0.035l0.678,0.809c0.008,0.009,0.021,0.006,0.029,0.014c0.01,0.009,0.01,0.023,0.021,0.031  l0.963,0.656c0.01,0.008,0.022,0.006,0.033,0.011c0.008,0.004,0.01,0.014,0.018,0.017l1.247,0.481  c0.011,0.004,0.021,0.003,0.031,0.006c0.004,0.001,0.005,0.005,0.009,0.005l1.377,0.285c0.013,0.002,0.025,0.003,0.037,0.004  c0.001,0,0.002,0,0.002,0l1.467,0.066c0.003,0.001,0.007,0.001,0.01,0.001l0,0c0,0,0,0,0.001,0l0,0l0,0  c0.011,0,0.021-0.001,0.03-0.002l1.422-0.176c0.004-0.001,0.005-0.003,0.008-0.004c0.012-0.002,0.024-0.002,0.037-0.006l1.312-0.415  c0.006-0.002,0.008-0.009,0.013-0.011c0.011-0.004,0.021-0.003,0.03-0.008l1.094-0.591c0.011-0.006,0.012-0.019,0.021-0.025  s0.023-0.004,0.032-0.013l0.81-0.766c0.007-0.007,0.005-0.018,0.011-0.024c0.013-0.015,0.029-0.023,0.038-0.041l0.438-0.83  c0.008-0.015,0-0.029,0.004-0.044c0.006-0.017,0.021-0.026,0.023-0.044l0.109-0.918c0.001-0.006-0.004-0.01-0.004-0.016  s0.006-0.009,0.006-0.015V57.24c0-0.016-0.014-0.025-0.017-0.041c-0.003-0.015,0.007-0.028,0.002-0.043l-0.307-0.854  c-0.005-0.014-0.021-0.018-0.028-0.031c-0.008-0.013-0.003-0.029-0.013-0.041l-0.104-0.128l6.804,3.533l-11.268,8.009L3.477,24.834  l7.229-5.125L10.44,19.959z M25.152,26.777l1.069-0.565l1.245-0.401l1.381-0.17l1.446,0.021l1.336,0.297l1.178,0.464l0.931,0.641  l0.606,0.748l0.272,0.778l-0.097,0.774l-0.397,0.794l-0.753,0.671l-1.048,0.586l-1.266,0.379l-1.381,0.192l-1.425-0.043  l-1.355-0.275l-1.178-0.483l-0.936-0.646l-0.602-0.722l-0.254-0.801l0.078-0.775l0.396-0.773L25.152,26.777z M38.759,33.951  l1.046-0.586l1.264-0.379l1.403-0.17l1.405,0.043l1.36,0.276l1.174,0.462l0.911,0.641l0.606,0.749l0.274,0.783l-0.057,0.77  l-0.437,0.792l-0.733,0.673l-1.047,0.586l-1.266,0.38l-1.403,0.191l-1.403-0.043l-1.355-0.275l-1.177-0.483l-0.914-0.643  l-0.606-0.728l-0.273-0.782l0.058-0.793l0.414-0.769L38.759,33.951z M52.365,41.126l1.047-0.586l1.264-0.38l1.381-0.17l1.428,0.043  l1.356,0.275l1.177,0.462l0.912,0.643l0.626,0.747l0.253,0.758l-0.078,0.798l-0.396,0.791l-0.774,0.693l-1.044,0.564l-1.27,0.38  l-1.382,0.191l-1.424-0.063l-1.357-0.255l-1.152-0.482l-0.937-0.645l-0.605-0.727l-0.272-0.779l0.077-0.793l0.415-0.772  L52.365,41.126z M65.975,48.278l1.02-0.562l1.266-0.379l1.403-0.171l1.405,0.043l1.359,0.276l1.175,0.462l0.932,0.642l0.607,0.748  l0.272,0.76l-0.077,0.813l-0.416,0.773l-0.734,0.693l-1.065,0.564l-1.247,0.4l-1.399,0.17l-1.425-0.064l-1.341-0.254l-1.174-0.463  l-0.932-0.642l-0.604-0.745l-0.256-0.783l0.06-0.796l0.414-0.77L65.975,48.278z M79.558,55.475l1.065-0.584l1.266-0.379l1.359-0.17  l1.447,0.041l1.357,0.277l1.156,0.482l0.934,0.623l0.605,0.746l0.272,0.758l-0.097,0.814l-0.398,0.775l-0.753,0.691l-1.044,0.564  l-1.27,0.402l-1.379,0.17l-1.424-0.064l-1.34-0.255l-1.197-0.462l-0.911-0.642l-0.626-0.748l-0.253-0.778l0.077-0.774l0.418-0.794  L79.558,55.475z M3.25,25.28l81.115,42.808v15.381L3.25,40.683V25.28z"/><text x="0" y="115" fill="#000000" font-size="5px" font-weight="bold" font-family="'Helvetica Neue', Helvetica, Arial-Unicode, Arial, Sans-serif">Created by Lluisa Iborra</text><text x="0" y="120" fill="#000000" font-size="5px" font-weight="bold" font-family="'Helvetica Neue', Helvetica, Arial-Unicode, Arial, Sans-serif">from the Noun Project</text></svg>